<svg width="95" height="94" viewBox="0 0 95 94" fill="none" xmlns="http://www.w3.org/2000/svg">
<path d="M71.4758 90.2666H5.58411C4.67578 90.2666 3.93412 89.525 3.93412 88.6166V5.38331C3.93412 4.47498 4.67578 3.73331 5.58411 3.73331H21.1091V12.3166C21.1091 14.275 22.7008 15.8666 24.6591 15.8666H52.4008C54.3591 15.8666 55.9508 14.275 55.9508 12.3166V3.73331H71.4675C72.3758 3.73331 73.1175 4.47498 73.1175 5.38331V31.3916C73.1175 32.3916 73.9341 33.2083 74.9341 33.2083C75.9341 33.2083 76.7508 32.3916 76.7508 31.3916V5.38331C76.7508 2.46664 74.3758 0.0999756 71.4675 0.0999756H54.1258H22.9258H5.58411C2.66745 0.0999756 0.300781 2.47498 0.300781 5.38331V88.6166C0.300781 91.5333 2.67578 93.9 5.58411 93.9H71.4758C72.4758 93.9 73.2924 93.0833 73.2924 92.0833C73.2924 91.0833 72.4841 90.2666 71.4758 90.2666ZM52.4008 12.2333L24.7425 12.3166V3.73331H52.3258L52.4008 12.2333Z" fill="white"/>
<path d="M17.7257 12.4084C18.7257 12.4084 19.5423 11.5917 19.5423 10.5917C19.5423 9.59169 18.7257 8.77502 17.7257 8.77502H12.5256C11.5256 8.77502 10.709 9.59169 10.709 10.5917V79.95C10.709 80.95 11.5256 81.7667 12.5256 81.7667H36.8006C37.8006 81.7667 38.6173 80.95 38.6173 79.95C38.6173 78.95 37.8006 78.1334 36.8006 78.1334H14.3423V12.4084H17.7257Z" fill="white"/>
<path d="M64.5421 28.0083C65.5421 28.0083 66.3587 27.1916 66.3587 26.1916V10.5833C66.3587 9.58327 65.5421 8.7666 64.5421 8.7666H59.3421C58.3421 8.7666 57.5254 9.58327 57.5254 10.5833C57.5254 11.5833 58.3421 12.3999 59.3421 12.3999H62.7254V26.1833C62.7254 27.1916 63.5421 28.0083 64.5421 28.0083Z" fill="white"/>
<path d="M91.8754 80.9499L78.8587 67.9833C80.8837 64.2083 81.9587 60.0083 81.9587 55.6666C81.9587 41.2749 70.2504 29.575 55.8671 29.575C41.4837 29.575 29.7754 41.2833 29.7754 55.6666C29.7754 70.0499 41.4837 81.7583 55.8671 81.7583C60.2004 81.7583 64.4087 80.6833 68.1837 78.65L81.1254 91.6749C82.5587 93.1083 84.4671 93.8916 86.5004 93.8916C88.5337 93.8916 90.4421 93.1083 91.8754 91.6749C93.3087 90.2416 94.1004 88.3333 94.1004 86.3083C94.1087 84.2916 93.3171 82.3833 91.8754 80.9499ZM68.4921 74.2416C64.7587 76.7833 60.3921 78.1249 55.8671 78.1249C43.4837 78.1249 33.4087 68.0499 33.4087 55.6666C33.4087 43.2833 43.4837 33.2083 55.8671 33.2083C68.2504 33.2083 78.3254 43.2833 78.3254 55.6666C78.3254 60.1666 77.0004 64.5166 74.4837 68.2333C72.8837 70.5999 70.8671 72.625 68.4921 74.2416ZM76.8587 71.1249L89.3087 83.5249C90.0587 84.2666 90.4671 85.2583 90.4671 86.3166C90.4671 87.3666 90.0587 88.3583 89.3087 89.1083C87.7671 90.6499 85.2504 90.6499 83.7087 89.1166L71.3254 76.6583C73.4504 75.0916 75.3004 73.2416 76.8587 71.1249Z" fill="white"/>
<path d="M72.0665 47.6583C71.3582 46.95 70.1999 46.95 69.4915 47.6583L52.8832 64.2667L45.3582 56.7417C44.6749 56.05 43.4749 56.05 42.7832 56.7417C42.0749 57.45 42.0749 58.6 42.7832 59.3167L51.5915 68.125C51.9332 68.4667 52.3999 68.6583 52.8749 68.6583C53.3582 68.6583 53.8165 68.4667 54.1582 68.125L72.0499 50.2333C72.7749 49.5167 72.7749 48.3667 72.0665 47.6583Z" fill="white"/>
</svg>
