<svg width="80" height="133" viewBox="0 0 80 133" fill="none" xmlns="http://www.w3.org/2000/svg">
<path d="M79.25 24.125V15.3833C79.25 13.5417 77.975 11.4667 75.7417 9.69999C73.6833 8.06666 71.3417 7.09999 69.475 7.09999H45V0.0333252H35V7.09999H10.525C8.66667 7.09999 6.33333 8.07499 4.26667 9.70833C2.03333 11.475 0.75 13.55 0.75 15.3833V24.125H1.04167L16.825 87.5833L17.0167 88.6333L33.65 88.625V132.292H46.7083V88.6167L63.1333 88.6083L63.5917 85.9333L78.9667 24.1167H79.25V24.125ZM44.0417 129.625H36.3167V88.6333H44.0417V129.625ZM3.41667 15.3833C3.41667 14.4083 4.4 13 5.925 11.8C7.45833 10.5833 9.30833 9.76666 10.525 9.76666H37.6667V2.69999H42.3333V9.76666H69.475C70.7 9.76666 72.5583 10.5833 74.0833 11.7917C75.6 12.9917 76.5833 14.4 76.5833 15.3833V21.4583H3.41667V15.3833ZM48.025 75V75.875H31.975V75H48.025ZM31.975 72.5833V71.5667H48.025V72.5833H31.975ZM27.55 57.4583C26.4417 56.075 25.575 54.5333 24.9833 52.8667C24.3667 51.15 24.0583 49.35 24.0583 47.5V46.9917H36.6333L31.525 62.4917C31.3417 63.05 31.5833 63.65 32.0917 63.925C32.2667 64.025 32.4667 64.075 32.675 64.075C33.0417 64.075 33.3833 63.9083 33.6083 63.625L53.3667 39.3667L53.5833 39.125C53.8417 39.5167 54.2667 40.375 54.5167 40.9167C55.45 42.9833 55.925 45.1917 55.925 47.4833C55.925 49.325 55.6167 51.1333 55 52.85C54.4083 54.5 53.55 56.0417 52.4333 57.4417C50.375 60.0083 48.0167 63.4833 48.0167 67.5333V69.1333H43.6667V62.0833C43.6667 61.4167 43.125 60.875 42.4583 60.875C41.7917 60.875 41.25 61.4167 41.25 62.0833V69.1333H38.725V62.0833C38.725 61.4167 38.1833 60.875 37.5167 60.875C36.85 60.875 36.3083 61.4167 36.3083 62.0833V69.1333H31.9667V67.5333C31.9667 63.4833 29.6 60.0167 27.55 57.4583ZM62.15 78.5917L60.9833 85.3833L60.8417 85.9417L19.2333 85.9667L17.875 78.5917H62.15ZM63.3333 75.925H50.45V67.55C50.45 65.8083 50.8917 63.2583 54.3417 58.9667C55.6083 57.3833 56.6083 55.6083 57.3 53.6833C58.0083 51.7 58.3667 49.625 58.3667 47.5C58.3583 44.85 57.8083 42.3083 56.725 39.9333C56.0667 38.475 55.2167 37.1083 54.2 35.8667C54.1167 35.7667 53.8917 35.6 53.5917 35.6333C53.2167 35.6667 52.85 35.9833 52.5 36.5667C51.975 37.45 50.2083 39.4583 50.1917 39.4833L35.875 57.0417L39.4583 46.1583C39.5833 45.7917 39.5167 45.3833 39.2917 45.0667C39.0667 44.75 38.7 44.5667 38.3167 44.5667H23.2917C23.2583 44.5667 22.55 44.55 22.0917 44.9917C21.8417 45.2333 21.7167 45.5583 21.7167 45.9583C21.7167 46.2083 21.7 46.4583 21.6833 46.7083C21.6667 46.9667 21.65 47.2333 21.65 47.4917C21.65 49.6167 22.0083 51.7 22.725 53.675C23.4167 55.6 24.4167 57.375 25.6833 58.9583C27.4917 61.2167 29.575 64.2417 29.575 67.5417V75.9167H16.6667L3.78334 24.125H76.2083L63.3333 75.925Z" fill="#312783"/>
</svg>
