<svg width="70" height="110" viewBox="0 0 70 110" fill="none" xmlns="http://www.w3.org/2000/svg">
<path d="M34.9994 72.4166C34.5577 72.4166 34.1328 72.2416 33.8244 71.9249C30.0744 68.1749 26.6911 63.7083 24.2911 59.3583C21.6661 54.5916 20.2744 50.1166 20.2744 46.3999C20.2744 38.2833 26.8827 31.6749 34.9994 31.6749C43.1244 31.6749 49.7244 38.2833 49.7244 46.3999C49.7244 50.1166 48.3327 54.5916 45.7077 59.3583C43.3077 63.7083 39.9244 68.1749 36.1744 71.9249C35.8661 72.2416 35.4411 72.4166 34.9994 72.4166ZM34.9994 35.0083C28.7161 35.0083 23.6077 40.1166 23.6077 46.3999C23.6077 49.5499 24.8494 53.4749 27.2077 57.7499C29.2077 61.3749 31.9411 65.0916 34.9994 68.3499C38.0577 65.0916 40.7994 61.3749 42.7911 57.7499C45.1494 53.4749 46.3911 49.5499 46.3911 46.3999C46.3911 40.1166 41.2827 35.0083 34.9994 35.0083Z" fill="#312783"/>
<path d="M34.9997 55.1916C30.1497 55.1916 26.208 51.2499 26.208 46.3999C26.208 41.5499 30.1497 37.6083 34.9997 37.6083C39.8497 37.6083 43.7913 41.5499 43.7913 46.3999C43.7913 51.2499 39.8497 55.1916 34.9997 55.1916ZM34.9997 40.9416C31.9913 40.9416 29.5413 43.3916 29.5413 46.3999C29.5413 49.4083 31.9913 51.8583 34.9997 51.8583C38.008 51.8583 40.458 49.4083 40.458 46.3999C40.458 43.3916 38.008 40.9416 34.9997 40.9416Z" fill="#312783"/>
<path d="M53.4329 109.758H16.5663C7.48294 109.758 0.0996094 102.367 0.0996094 93.2916V16.7083C0.0996094 7.62497 7.49127 0.241638 16.5663 0.241638H53.4413C57.8413 0.241638 61.9746 1.9583 65.0913 5.06664C68.1996 8.17497 69.9163 12.3083 69.9163 16.7083V93.2916C69.9079 102.375 62.5163 109.758 53.4329 109.758ZM16.5663 3.57497C9.32461 3.57497 3.43294 9.46664 3.43294 16.7083V93.2916C3.43294 100.533 9.32461 106.425 16.5663 106.425H53.4413C60.6829 106.425 66.5829 100.533 66.5829 93.2916V16.7083C66.5829 9.46664 60.6913 3.57497 53.4413 3.57497H16.5663Z" fill="#312783"/>
<path d="M68.0745 87.6833H1.92448C1.00781 87.6833 0.257812 86.9333 0.257812 86.0166C0.257812 85.1 1.00781 84.35 1.92448 84.35H68.0745C68.9911 84.35 69.7411 85.1 69.7411 86.0166C69.7411 86.9333 68.9911 87.6833 68.0745 87.6833Z" fill="#312783"/>
<path d="M40.9829 15H29.0163C28.0996 15 27.3496 14.25 27.3496 13.3333C27.3496 12.4166 28.0996 11.6666 29.0163 11.6666H40.9829C41.8996 11.6666 42.6496 12.4166 42.6496 13.3333C42.6496 14.25 41.9079 15 40.9829 15Z" fill="#312783"/>
<path d="M31.708 96.7749C31.708 98.5916 33.183 100.067 34.9997 100.067C36.8163 100.067 38.2913 98.5916 38.2913 96.7749C38.2913 94.9583 36.8163 93.4833 34.9997 93.4833C33.183 93.4833 31.708 94.9583 31.708 96.7749Z" fill="#312783"/>
</svg>
