<svg width="96" height="96" viewBox="0 0 96 96" fill="none" xmlns="http://www.w3.org/2000/svg">
<path d="M48.0017 44.3834C43.0767 44.3834 39.0684 48.3918 39.0684 53.3168C39.0684 58.2418 43.0767 62.2501 48.0017 62.2501C52.9267 62.2501 56.935 58.2418 56.935 53.3168C56.935 48.3918 52.9267 44.3834 48.0017 44.3834ZM53.2517 53.3168C53.2517 56.2084 50.8934 58.5668 48.0017 58.5668C45.11 58.5668 42.7517 56.2084 42.7517 53.3168C42.7517 50.4251 45.11 48.0668 48.0017 48.0668C50.8934 48.0668 53.2517 50.4251 53.2517 53.3168Z" fill="white"/>
<path d="M57.7499 74.5334C56.7332 74.5334 55.9082 75.3584 55.9082 76.3751V94.1084C55.9082 95.1251 56.7332 95.9501 57.7499 95.9501C58.7665 95.9501 59.5915 95.1251 59.5915 94.1084V76.3751C59.5999 75.3584 58.7665 74.5334 57.7499 74.5334Z" fill="white"/>
<path d="M55.0924 63.8917H40.9091C34.0258 63.8917 28.4258 69.4917 28.4258 76.3751V94.1084C28.4258 95.1251 29.2508 95.9501 30.2675 95.9501C31.2841 95.9501 32.1091 95.1251 32.1091 94.1084V76.3751C32.1091 71.5251 36.0591 67.5751 40.9091 67.5751H55.0924C59.9424 67.5751 63.8924 71.5251 63.8924 76.3751V94.1084C63.8924 95.1251 64.7175 95.9501 65.7341 95.9501C66.7508 95.9501 67.5758 95.1251 67.5758 94.1084V76.3751C67.5758 69.4917 61.9758 63.8917 55.0924 63.8917Z" fill="white"/>
<path d="M38.2499 74.5334C37.2332 74.5334 36.4082 75.3584 36.4082 76.3751V94.1084C36.4082 95.1251 37.2332 95.9501 38.2499 95.9501C39.2665 95.9501 40.0915 95.1251 40.0915 94.1084V76.3751C40.0915 75.3584 39.2665 74.5334 38.2499 74.5334Z" fill="white"/>
<path d="M76.3767 44.3834C71.4517 44.3834 67.4434 48.3918 67.4434 53.3168C67.4434 58.2418 71.4517 62.2501 76.3767 62.2501C81.3017 62.2501 85.31 58.2418 85.31 53.3168C85.31 48.3918 81.3017 44.3834 76.3767 44.3834ZM81.6267 53.3168C81.6267 56.2084 79.2684 58.5668 76.3767 58.5668C73.485 58.5668 71.1267 56.2084 71.1267 53.3168C71.1267 50.4251 73.485 48.0668 76.3767 48.0668C79.2684 48.0668 81.6267 50.4251 81.6267 53.3168Z" fill="white"/>
<path d="M86.1249 74.5334C85.1082 74.5334 84.2832 75.3584 84.2832 76.3751V94.1084C84.2832 95.1251 85.1082 95.9501 86.1249 95.9501C87.1415 95.9501 87.9665 95.1251 87.9665 94.1084V76.3751C87.9665 75.3584 87.1415 74.5334 86.1249 74.5334Z" fill="white"/>
<path d="M83.4684 63.8917H69.285C68.2684 63.8917 67.4434 64.7167 67.4434 65.7334C67.4434 66.7501 68.2684 67.5751 69.285 67.5751H83.4684C88.3184 67.5751 92.2684 71.5251 92.2684 76.3751V94.1084C92.2684 95.1251 93.0934 95.9501 94.11 95.9501C95.1267 95.9501 95.9517 95.1251 95.9517 94.1084V76.3751C95.9517 69.4917 90.3517 63.8917 83.4684 63.8917Z" fill="white"/>
<path d="M19.6267 62.2584C24.5517 62.2584 28.56 58.2501 28.56 53.3251C28.56 48.4001 24.5517 44.3917 19.6267 44.3917C14.7017 44.3917 10.6934 48.4001 10.6934 53.3251C10.6934 58.2501 14.7017 62.2584 19.6267 62.2584ZM19.6267 48.0667C22.5184 48.0667 24.8767 50.4251 24.8767 53.3167C24.8767 56.2084 22.5184 58.5667 19.6267 58.5667C16.735 58.5667 14.3767 56.2084 14.3767 53.3167C14.3767 50.4251 16.735 48.0667 19.6267 48.0667Z" fill="white"/>
<path d="M9.87487 74.5334C8.8582 74.5334 8.0332 75.3584 8.0332 76.3751V94.1084C8.0332 95.1251 8.8582 95.9501 9.87487 95.9501C10.8915 95.9501 11.7165 95.1251 11.7165 94.1084V76.3751C11.7165 75.3584 10.8915 74.5334 9.87487 74.5334Z" fill="white"/>
<path d="M26.7174 63.8917H12.5341C5.65078 63.8917 0.0507812 69.4917 0.0507812 76.3751V94.1084C0.0507812 95.1251 0.875782 95.9501 1.89245 95.9501C2.90912 95.9501 3.73411 95.1251 3.73411 94.1084V76.3751C3.73411 71.5251 7.68412 67.5751 12.5341 67.5751H26.7174C27.7341 67.5751 28.5591 66.7501 28.5591 65.7334C28.5674 64.7167 27.7341 63.8917 26.7174 63.8917Z" fill="white"/>
<path d="M16.0835 35.6584H25.9585L32.5085 42.2084C33.2252 42.925 34.4002 42.925 35.1168 42.2084L41.6668 35.6584H54.3335L60.8835 42.2084C61.2335 42.5584 61.6918 42.75 62.1918 42.75C62.6835 42.75 63.1502 42.5584 63.4918 42.2084L70.0418 35.6584H79.9168C81.9085 35.6584 83.5335 34.0334 83.5335 32.0417V3.66671C83.5335 1.67505 81.9085 0.0500488 79.9168 0.0500488H16.0835C14.0918 0.0500488 12.4668 1.67505 12.4668 3.66671V32.0417C12.4585 34.0334 14.0835 35.6584 16.0835 35.6584ZM16.0835 3.73338L79.8502 3.65838L79.9168 31.9584H69.2752C68.7918 31.9584 68.3168 32.1584 67.9752 32.5L62.1835 38.2917L56.3918 32.5C56.0502 32.1584 55.5752 31.9584 55.0918 31.9584H40.9085C40.4252 31.9584 39.9502 32.1584 39.6085 32.5L33.8168 38.2917L28.0252 32.5C27.6835 32.1584 27.2085 31.9584 26.7252 31.9584L16.1585 32.025L16.0835 3.73338Z" fill="white"/>
<path d="M48.0005 20.3583C49.3839 20.3583 50.5089 19.2333 50.5089 17.85C50.5089 16.4667 49.3839 15.3417 48.0005 15.3417C46.6172 15.3417 45.4922 16.4667 45.4922 17.85C45.4922 19.2333 46.6172 20.3583 48.0005 20.3583Z" fill="white"/>
<path d="M33.8169 20.3583C35.2003 20.3583 36.3253 19.2333 36.3253 17.85C36.3253 16.4667 35.2003 15.3417 33.8169 15.3417C32.4336 15.3417 31.3086 16.4667 31.3086 17.85C31.3086 19.2333 32.4336 20.3583 33.8169 20.3583Z" fill="white"/>
<path d="M62.1841 20.3583C63.5674 20.3583 64.6925 19.2333 64.6925 17.85C64.6925 16.4667 63.5674 15.3417 62.1841 15.3417C60.8008 15.3417 59.6758 16.4667 59.6758 17.85C59.6758 19.2333 60.8008 20.3583 62.1841 20.3583Z" fill="white"/>
</svg>
