<svg width="78" height="96" viewBox="0 0 78 96" fill="none" xmlns="http://www.w3.org/2000/svg">
<path d="M39.0009 95.2167C38.7676 95.2167 38.5342 95.1667 38.3176 95.0667C16.5426 84.9 6.99258 73.6167 2.81758 65.9417C1.06758 62.725 0.142578 58.9917 0.142578 55.15V10.5584C0.142578 10.0917 0.342577 9.64168 0.70091 9.33335C1.05091 9.02502 1.52591 8.88335 1.99258 8.95002C8.60091 9.88335 15.2342 9.58335 21.7092 8.04168C27.5509 6.65002 33.0759 4.29168 38.1342 1.03335C38.6676 0.691683 39.3509 0.691683 39.8842 1.03335C44.9426 4.29168 50.4676 6.65002 56.3092 8.04168C62.7842 9.58335 69.4092 9.88335 76.0259 8.95002C76.4926 8.88335 76.9592 9.02502 77.3176 9.33335C77.6676 9.64168 77.8759 10.0834 77.8759 10.5584V55.15C77.8759 58.9917 76.9509 62.725 75.2009 65.9417C71.0259 73.6167 61.4842 84.8917 39.7009 95.0667C39.4676 95.1667 39.2342 95.2167 39.0009 95.2167ZM3.37591 12.3917V55.15C3.37591 58.45 4.16758 61.65 5.65925 64.4C8.85091 70.2667 17.4176 81.5834 39.0009 91.8167C60.5842 81.5834 69.1509 70.275 72.3426 64.4C73.8342 61.6583 74.6259 58.4584 74.6259 55.15V12.3917C68.2259 13.0917 61.8176 12.6834 55.5509 11.2C49.6926 9.80835 44.1259 7.49168 39.0009 4.31668C33.8759 7.49168 28.3092 9.80002 22.4509 11.2C16.1842 12.6834 9.77591 13.0834 3.37591 12.3917Z" fill="white"/>
<path d="M39.0001 85.4C38.7501 85.4 38.5001 85.3417 38.2668 85.225C20.3168 76.0833 13.2085 66.575 10.5668 61.725C9.5168 59.8 8.9668 57.525 8.9668 55.15V19.9167C8.9668 19.0333 9.67513 18.3167 10.5585 18.3C15.0001 18.225 19.4335 17.6583 23.7418 16.6333C28.7918 15.4333 33.6668 13.6 38.2418 11.1833C38.7168 10.9333 39.2751 10.9333 39.7501 11.1833C44.3251 13.6 49.2085 15.4333 54.2501 16.6333C58.5585 17.6583 62.9918 18.2167 67.4335 18.3C68.3168 18.3167 69.0251 19.0333 69.0251 19.9167V55.15C69.0251 57.525 68.4668 59.8 67.4251 61.725C64.7835 66.575 57.6751 76.0833 39.7251 85.225C39.5001 85.3417 39.2501 85.4 39.0001 85.4ZM12.2001 21.4833V55.15C12.2001 56.9833 12.6168 58.725 13.4085 60.175C15.8335 64.6333 22.3668 73.3333 39.0001 81.9583C55.6251 73.3333 62.1668 64.6333 64.5918 60.175C65.3835 58.7167 65.8001 56.9833 65.8001 55.1417V21.475C61.6585 21.3 57.5335 20.725 53.5085 19.775C48.4751 18.575 43.6001 16.7833 39.0001 14.4333C34.4001 16.7833 29.5251 18.575 24.4918 19.775C20.4668 20.7333 16.3418 21.3083 12.2001 21.4833Z" fill="white"/>
<path d="M53.9004 37.4167C53.0504 36.5667 51.6587 36.5667 50.8087 37.4167L34.4587 53.7667L27.2004 46.5C26.8087 46.1 26.2421 45.875 25.6504 45.875C25.0671 45.875 24.5004 46.1 24.1004 46.5C23.2504 47.35 23.2504 48.7417 24.1004 49.5917L32.9087 58.4C33.3171 58.8083 33.8754 59.0417 34.4587 59.0417C35.0421 59.0417 35.5921 58.8167 36.0087 58.4L53.9004 40.5083C54.7504 39.6583 54.7504 38.2667 53.9004 37.4167Z" fill="white"/>
</svg>
