<svg width="94" height="94" viewBox="0 0 94 94" fill="none" xmlns="http://www.w3.org/2000/svg">
<path d="M93.4423 46.1667C93.4257 46.1417 93.434 46.1084 93.4173 46.075L79.4673 21.6584L85.1673 18.8084C86.0923 18.35 86.459 17.225 86.0007 16.3C85.534 15.375 84.4173 15.0084 83.4923 15.4667L76.6423 18.8917L54.1757 13.2667C53.484 10.675 51.4423 8.71671 48.859 8.05838V2.20004C48.859 1.16671 48.0257 0.333374 46.9923 0.333374C45.959 0.333374 45.1257 1.16671 45.1257 2.20004V8.05838C42.4673 8.72504 40.4173 10.7417 39.8007 13.2667L17.2007 18.925L6.51732 15.3667C5.53399 15.0334 4.48398 15.5667 4.15898 16.55C3.83398 17.525 4.35898 18.5834 5.34232 18.9084L14.384 21.9167L0.583984 46.075C0.567318 46.1 0.575652 46.1334 0.558985 46.1584C0.425652 46.4167 0.333984 46.6917 0.333984 47C0.333984 56.2667 7.86732 63.8 17.134 63.8C26.4007 63.8 33.934 56.2667 33.934 47C33.934 46.6917 33.8423 46.4167 33.709 46.1584C33.6923 46.1334 33.7007 46.1 33.684 46.075L19.9757 22.0834L39.7923 17.125C40.4673 19.7417 42.5173 21.8 45.134 22.475V75H43.2673C38.5757 75 34.7173 78.4917 34.0673 83.0084C31.7923 84 30.2007 86.2667 30.2007 88.9V91.8C30.2007 92.8334 31.034 93.6667 32.0673 93.6667H61.934C62.9673 93.6667 63.8007 92.8334 63.8007 91.8V88.9C63.8007 86.2667 62.209 84 59.934 83.0084C59.284 78.4917 55.4257 75 50.734 75H48.8673V22.4667C51.484 21.7834 53.534 19.7334 54.209 17.1167L74.0257 22.075L60.3173 46.0667C60.3007 46.0917 60.309 46.125 60.2923 46.1584C60.159 46.4167 60.0757 46.6917 60.0757 46.9917C60.0757 56.2584 67.609 63.7917 76.8757 63.7917C86.1423 63.7917 93.6673 56.2667 93.6673 47C93.6673 46.6917 93.5757 46.4167 93.4423 46.1667ZM60.0673 89.9334H33.934V88.9C33.934 87.4084 35.1423 86.2 36.634 86.2H57.3673C58.8507 86.2 60.0673 87.4084 60.0673 88.9V89.9334ZM56.009 82.4667H37.984C38.759 80.2917 40.834 78.7334 43.2673 78.7334H50.734C53.1673 78.7334 55.2423 80.2917 56.009 82.4667ZM88.584 45.1334H65.1507L76.8673 24.6334L88.584 45.1334ZM28.8507 45.1334H5.41732L17.134 24.6334L28.8507 45.1334ZM17.134 60.0667C10.5673 60.0667 5.18399 55.1834 4.26732 48.8667H30.0007C29.0923 55.1834 23.7006 60.0667 17.134 60.0667ZM47.0007 19C44.9423 19 43.2673 17.325 43.3007 14.925C43.4506 12.9917 45.0423 11.5334 47.0007 11.5334C48.9423 11.5334 50.5173 12.975 50.7173 15.0667C50.7173 15.0834 50.7257 15.1 50.734 15.1167H50.7423C50.7507 15.1667 50.784 15.2084 50.7923 15.2584H50.734C50.734 17.325 49.059 19 47.0007 19ZM76.8673 60.0667C70.3007 60.0667 64.9173 55.1834 64.0007 48.8667H89.7423C88.8173 55.1834 83.4257 60.0667 76.8673 60.0667Z" fill="white"/>
</svg>
