<svg width="152" height="61" viewBox="0 0 152 61" fill="none" xmlns="http://www.w3.org/2000/svg">
<path d="M140.668 59.4818C140.668 59.2754 140.739 59.1008 140.881 58.9579C141.023 58.8071 141.197 58.7356 141.402 58.7356C141.599 58.7356 141.773 58.8071 141.923 58.9579C142.073 59.1008 142.144 59.2754 142.144 59.4818C142.144 59.6882 142.073 59.8629 141.923 60.0058C141.781 60.1487 141.607 60.2201 141.402 60.2201C141.197 60.2201 141.023 60.1487 140.881 60.0058C140.739 59.8708 140.668 59.6962 140.668 59.4818Z" fill="white"/>
<path d="M149.044 53.3453V54.4329C148.286 54.0598 147.599 53.8772 146.96 53.8772C146.147 53.8772 145.468 54.1392 144.908 54.671C144.347 55.195 144.071 55.846 144.071 56.616C144.071 57.394 144.355 58.0529 144.924 58.5768C145.492 59.1008 146.202 59.3628 147.063 59.3628C147.686 59.3628 148.341 59.1643 149.036 58.7753V59.8708C148.405 60.2122 147.718 60.3789 146.976 60.3789C145.894 60.3789 144.971 60.0137 144.197 59.2754C143.432 58.5371 143.045 57.648 143.045 56.6081C143.045 55.584 143.424 54.7107 144.174 53.9804C144.931 53.25 145.839 52.8928 146.905 52.8928C147.599 52.8769 148.31 53.0357 149.044 53.3453Z" fill="white"/>
<path d="M149.92 59.4818C149.92 59.2754 149.991 59.1008 150.133 58.9579C150.275 58.8071 150.449 58.7356 150.654 58.7356C150.851 58.7356 151.033 58.8071 151.175 58.9579C151.325 59.1008 151.396 59.2754 151.396 59.4818C151.396 59.6882 151.325 59.8629 151.175 60.0058C151.033 60.1487 150.859 60.2201 150.654 60.2201C150.449 60.2201 150.275 60.1487 150.133 60.0058C149.991 59.8708 149.92 59.6962 149.92 59.4818Z" fill="white"/>
<path d="M22.117 47.0579C19.528 49.2252 16.347 49.1616 13.7974 46.2244C11.2478 43.2871 12.0766 40.1593 14.4289 38.0873C16.7811 36.0233 21.7539 36.3567 22.1565 36.4202C22.1565 36.4202 24.1772 36.182 24.3745 38.5557C24.5719 40.9214 24.7061 44.8907 22.117 47.0579ZM28.337 36.0233C27.9976 31.9904 24.5482 32.3874 24.5482 32.3874C23.8694 32.2683 15.3919 31.7047 11.382 35.2294C7.36428 38.7541 5.95136 44.0968 10.3085 49.0981C14.6578 54.0995 20.0884 54.2106 24.4929 50.5192C28.9053 46.8198 28.6764 40.064 28.337 36.0233Z" fill="white"/>
<path d="M11.3033 55.2188C11.3033 58.3625 8.76956 60.9028 5.65167 60.9028C2.53378 60.9028 0 58.3546 0 55.2188C0 52.0831 2.53378 49.5348 5.65167 49.5348C8.77745 49.5348 11.3033 52.0831 11.3033 55.2188Z" fill="white"/>
<path d="M45.7886 46.2244C43.239 49.1616 40.0501 49.2252 37.469 47.0579C34.8799 44.8907 35.0141 40.9214 35.2115 38.5557C35.4088 36.19 37.4295 36.4202 37.4295 36.4202C37.8242 36.3567 42.797 36.0233 45.1571 38.0873C47.5094 40.1513 48.3382 43.2871 45.7886 46.2244ZM48.204 35.2294C44.1942 31.7046 35.7166 32.2762 35.0378 32.3874C35.0378 32.3874 31.5884 31.9904 31.249 36.0233C30.9096 40.0561 30.6807 46.8198 35.0931 50.5191C39.5055 54.2185 44.9282 54.0995 49.2775 49.0981C53.6268 44.0968 52.2138 38.7541 48.204 35.2294Z" fill="white"/>
<path d="M48.2832 55.2188C48.2832 58.3625 50.817 60.9028 53.9349 60.9028C57.0528 60.9028 59.5865 58.3546 59.5865 55.2188C59.5865 52.0831 57.0528 49.5348 53.9349 49.5348C50.8091 49.5348 48.2832 52.0831 48.2832 55.2188Z" fill="white"/>
<path d="M45.1571 23.7184C42.8049 25.7824 37.8321 25.449 37.4295 25.3855C37.4295 25.3855 35.4088 25.6237 35.2115 23.25C35.0141 20.8843 34.8799 16.915 37.469 14.7478C40.0501 12.5805 43.239 12.652 45.7886 15.5813C48.3382 18.5186 47.5094 21.6544 45.1571 23.7184ZM49.2775 12.7076C44.9282 7.70623 39.4976 7.59509 35.0931 11.2865C30.6807 14.978 30.9096 21.7496 31.249 25.7824C31.5884 29.8152 35.0378 29.4183 35.0378 29.4183C35.7166 29.5295 44.1942 30.101 48.204 26.5763C52.2138 23.0595 53.6268 17.7089 49.2775 12.7076Z" fill="white"/>
<path d="M48.2832 6.58689C48.2832 3.4432 50.817 0.902847 53.9349 0.902847C57.0528 0.902847 59.5865 3.45114 59.5865 6.58689C59.5865 9.72264 57.0528 12.2709 53.9349 12.2709C50.8091 12.2709 48.2832 9.73058 48.2832 6.58689Z" fill="white"/>
<path d="M24.3746 23.258C24.1773 25.6237 22.1566 25.3934 22.1566 25.3934C21.7619 25.4649 16.7891 25.7983 14.4289 23.7263C12.0767 21.6623 11.2479 18.5266 13.7975 15.5893C16.347 12.6599 19.536 12.5885 22.1171 14.7557C24.7061 16.923 24.5719 20.8923 24.3746 23.258ZM24.493 11.2865C20.0806 7.59509 14.6578 7.70623 10.3086 12.7076C5.95932 17.7089 7.37224 23.0516 11.3821 26.5763C15.3919 30.101 23.8694 29.5295 24.5483 29.4183C24.5483 29.4183 27.9977 29.8152 28.3371 25.7824C28.6765 21.7496 28.8975 14.9859 24.493 11.2865Z" fill="white"/>
<path d="M11.3033 6.58689C11.3033 3.4432 8.77745 0.902847 5.65167 0.902847C2.53378 0.902847 0 3.45114 0 6.58689C0 9.72264 2.53378 12.2709 5.65167 12.2709C8.77745 12.2709 11.3033 9.73058 11.3033 6.58689Z" fill="white"/>
</svg>
