<svg width="86" height="110" viewBox="0 0 86 110" fill="none" xmlns="http://www.w3.org/2000/svg">
<path d="M29.5587 58.0917H15.5671C14.6504 58.0917 13.9004 58.8417 13.9004 59.7583V73.75C13.9004 74.6667 14.6504 75.4167 15.5671 75.4167H29.5587C30.4754 75.4167 31.2254 74.6667 31.2254 73.75V59.7583C31.2254 58.8417 30.4754 58.0917 29.5587 58.0917ZM27.8921 72.0833H17.2337V61.425H27.8921V72.0833Z" fill="#312783"/>
<path d="M41.5749 37.4667C40.6582 37.4667 39.9082 38.2167 39.9082 39.1333C39.9082 40.05 40.6582 40.8 41.5749 40.8H73.1999C74.1165 40.8 74.8665 40.05 74.8665 39.1333C74.8665 38.2167 74.1165 37.4667 73.1999 37.4667H41.5749Z" fill="#312783"/>
<path d="M41.5749 48.7H65.1332C66.0499 48.7 66.7999 47.95 66.7999 47.0334C66.7999 46.1167 66.0499 45.3667 65.1332 45.3667H41.5749C40.6582 45.3667 39.9082 46.1167 39.9082 47.0334C39.9082 47.95 40.6582 48.7 41.5749 48.7Z" fill="#312783"/>
<path d="M83.5833 14.7416H64.175V11.6666C64.175 10.75 63.425 9.99998 62.5083 9.99998H54.075C53.4 4.49165 48.6917 0.208313 43 0.208313C37.3083 0.208313 32.6 4.49165 31.925 9.99998H23.5C22.5833 9.99998 21.8333 10.75 21.8333 11.6666V14.7416H2.41667C1.5 14.7416 0.75 15.4916 0.75 16.4083V108.125C0.75 109.042 1.5 109.792 2.41667 109.792H83.5833C84.5 109.792 85.25 109.042 85.25 108.125V16.4083C85.25 15.4916 84.5 14.7416 83.5833 14.7416ZM43 3.54165C46.85 3.54165 50.0583 6.33331 50.7083 9.99998H35.2917C35.9417 6.33331 39.15 3.54165 43 3.54165ZM25.1667 13.3333H60.8417V18.5166C60.8417 22.5333 57.5667 25.8083 53.5417 25.8083H32.4667C28.4417 25.8083 25.1667 22.5333 25.1667 18.5166V13.3333ZM81.9167 106.458H4.08333V18.075H21.8333V18.5166C21.8333 24.375 26.6 29.1416 32.4667 29.1416H53.5417C59.4083 29.1416 64.175 24.375 64.175 18.5166V18.075H81.9167V106.458Z" fill="#312783"/>
<path d="M73.2005 60.7916H61.1755C60.2588 60.7916 59.5088 61.5416 59.5088 62.4583C59.5088 63.375 60.2588 64.125 61.1755 64.125H73.2005C74.1171 64.125 74.8671 63.375 74.8671 62.4583C74.8671 61.5416 74.1171 60.7916 73.2005 60.7916Z" fill="#312783"/>
<path d="M41.5749 64.125H53.2749C54.1915 64.125 54.9415 63.375 54.9415 62.4583C54.9415 61.5416 54.1915 60.7916 53.2749 60.7916H41.5749C40.6582 60.7916 39.9082 61.5416 39.9082 62.4583C39.9082 63.375 40.6582 64.125 41.5749 64.125Z" fill="#312783"/>
<path d="M41.5749 72.025H67.2415C68.1582 72.025 68.9082 71.275 68.9082 70.3583C68.9082 69.4417 68.1582 68.6917 67.2415 68.6917H41.5749C40.6582 68.6917 39.9082 69.4417 39.9082 70.3583C39.9082 71.275 40.6582 72.025 41.5749 72.025Z" fill="#312783"/>
<path d="M41.5749 87.45H56.6999C57.6165 87.45 58.3665 86.7 58.3665 85.7834C58.3665 84.8667 57.6165 84.1167 56.6999 84.1167H41.5749C40.6582 84.1167 39.9082 84.8667 39.9082 85.7834C39.9082 86.7 40.6582 87.45 41.5749 87.45Z" fill="#312783"/>
<path d="M73.1998 84.1167H64.3415C63.4248 84.1167 62.6748 84.8667 62.6748 85.7834C62.6748 86.7 63.4248 87.45 64.3415 87.45H73.1998C74.1165 87.45 74.8665 86.7 74.8665 85.7834C74.8665 84.8667 74.1165 84.1167 73.1998 84.1167Z" fill="#312783"/>
<path d="M50.1082 92.025H41.5749C40.6582 92.025 39.9082 92.775 39.9082 93.6917C39.9082 94.6084 40.6582 95.3584 41.5749 95.3584H50.1082C51.0249 95.3584 51.7749 94.6084 51.7749 93.6917C51.7749 92.775 51.0249 92.025 50.1082 92.025Z" fill="#312783"/>
<path d="M73.1996 92.025H58.0163C57.0996 92.025 56.3496 92.775 56.3496 93.6917C56.3496 94.6084 57.0996 95.3584 58.0163 95.3584H73.1996C74.1163 95.3584 74.8663 94.6084 74.8663 93.6917C74.8663 92.775 74.1163 92.025 73.1996 92.025Z" fill="#312783"/>
<path d="M29.1504 83.4833C28.5004 82.8333 27.4421 82.8333 26.7921 83.4833L22.5504 87.725L18.3087 83.4833C17.6587 82.8333 16.6004 82.8333 15.9504 83.4833C15.3004 84.1333 15.3004 85.1917 15.9504 85.8417L20.1921 90.0833L15.9504 94.325C15.3004 94.975 15.3004 96.0333 15.9504 96.6833C16.2754 97.0083 16.7004 97.175 17.1254 97.175C17.5504 97.175 17.9754 97.0083 18.3004 96.6833L22.5421 92.4417L26.7837 96.6833C27.1087 97.0083 27.5337 97.175 27.9587 97.175C28.3837 97.175 28.8087 97.0083 29.1337 96.6833C29.7837 96.0333 29.7837 94.975 29.1337 94.325L24.8921 90.0833L29.1337 85.8417C29.8087 85.1833 29.8087 84.1333 29.1504 83.4833Z" fill="#312783"/>
<path d="M15.9671 49.8833C16.2921 50.2083 16.7171 50.375 17.1421 50.375C17.5671 50.375 17.9921 50.2083 18.3171 49.8833L22.5587 45.65L26.8004 49.8833C27.1254 50.2083 27.5504 50.375 27.9754 50.375C28.4004 50.375 28.8254 50.2083 29.1504 49.8833C29.8004 49.2333 29.8004 48.175 29.1504 47.525L24.9171 43.3L29.1504 39.0667C29.8004 38.4167 29.8004 37.3583 29.1504 36.7083C28.5004 36.0583 27.4421 36.0583 26.7921 36.7083L22.5504 40.9417L18.3087 36.7083C17.6587 36.0583 16.6004 36.0583 15.9504 36.7083C15.3004 37.3583 15.3004 38.4167 15.9504 39.0667L20.1837 43.3L15.9504 47.5333C15.3171 48.1833 15.3087 49.2333 15.9671 49.8833Z" fill="#312783"/>
<path d="M33.5085 21.1H52.4918C53.4085 21.1 54.1585 20.35 54.1585 19.4333C54.1585 18.5167 53.4085 17.7667 52.4918 17.7667H33.5085C32.5918 17.7667 31.8418 18.5167 31.8418 19.4333C31.8418 20.35 32.5918 21.1 33.5085 21.1Z" fill="#312783"/>
</svg>
