<svg width="112" height="133" viewBox="0 0 112 133" fill="none" xmlns="http://www.w3.org/2000/svg">
<path d="M79.5917 85.9333L94.9667 24.1167H95.2583V15.3833C95.2583 13.5417 93.9833 11.4667 91.75 9.69999C89.6917 8.06666 87.35 7.09999 85.4833 7.09999H61V0.0333252H51V7.09999H26.525C24.6667 7.09999 22.3333 8.07499 20.2667 9.70833C18.0333 11.475 16.75 13.55 16.75 15.3833V24.125H17.0417L32.825 87.5833L33.0167 88.6333L49.65 88.625V132.292H62.7083V88.6167L79.1333 88.6083L79.5917 85.9333ZM60.0417 129.625H52.3167V88.6333H60.0417V129.625ZM33.875 78.5917H78.15L76.9833 85.3833L76.8417 85.9417L35.2333 85.9667L33.875 78.5917ZM63.7917 75.1083V75.725H48.1833V75.1083H63.7917ZM48.1833 72.4583V71.7167H63.7917V72.4583H48.1833ZM43.7833 57.5583C42.6917 56.2 41.85 54.6833 41.2667 53.0583C40.6667 51.3583 40.3583 49.5917 40.3583 47.7917C40.3583 43.6167 41.9833 39.6917 44.9333 36.7417C47.8833 33.7917 51.8083 32.1667 55.9833 32.1667C60.1583 32.1667 64.0833 33.7917 67.0333 36.7417C69.9833 39.6917 71.6083 43.6167 71.6083 47.7917C71.6083 49.6083 71.3 51.3833 70.7 53.0583C70.1167 54.6833 69.2667 56.2 68.1833 57.5583C66.1417 60.1083 63.7917 63.5583 63.7917 67.625V69.075H59.75V62.225C59.75 61.4917 60.1 59.4167 62.425 53.7333C63.5 51.1167 64.5917 48.725 65.1417 47.5333L65.1583 47.5C65.2583 47.3083 65.3083 47.1 65.3083 46.8833C65.3083 46.15 64.7167 45.5583 63.9833 45.5583H59.9833C59.575 45.5583 59.175 45.7583 58.925 46.0917L57.2917 48.275L55.9417 42.5833C55.8083 42.05 55.3583 41.6417 54.8167 41.5833C54.2667 41.5167 53.7417 41.7917 53.4833 42.2833L51.4167 46.2417H48C47.7 46.2417 47.4167 46.3417 47.1833 46.5333C47.1583 46.5583 47.125 46.5833 47.1 46.6083L47.0833 46.625C47.0583 46.65 47.0417 46.675 47.0167 46.7C47.0083 46.7083 47.0083 46.7167 47 46.7167C46.975 46.7417 46.9583 46.7667 46.9333 46.8C46.925 46.8083 46.925 46.8083 46.925 46.8167C46.8083 46.9917 46.725 47.1917 46.7 47.3917V47.4C46.6917 47.4333 46.6917 47.4667 46.6917 47.5083C46.6917 47.5167 46.6917 47.525 46.6917 47.5417C46.6917 47.55 46.6917 47.5583 46.6917 47.5667C46.6917 47.5833 46.6917 47.5917 46.6917 47.6083V47.6167C46.6917 47.6417 46.6917 47.6583 46.6917 47.6833C46.6917 47.7 46.6917 47.7167 46.7 47.7417C46.7 47.7667 46.7083 47.8 46.7167 47.825L46.725 47.8583C46.7333 47.8917 46.7417 47.9333 46.75 47.9667C46.775 48.0417 46.8 48.1083 46.825 48.1667C46.8333 48.1833 46.85 48.2167 46.8667 48.2583C47.825 50.2 48.7833 52.275 49.5667 54.1C51.8917 59.4917 52.2333 61.5083 52.2333 62.2417V69.0833H48.1833V67.6333C48.175 63.5583 45.825 60.1083 43.7833 57.5583ZM51.9833 53.0417C51.2917 51.4333 50.6 49.9417 50.1 48.8833H52.2167C52.7083 48.8833 53.1583 48.6083 53.3917 48.175L54.1917 46.65L55.375 51.65C55.4917 52.15 55.8917 52.5333 56.3917 52.6417C56.475 52.6583 56.5667 52.6667 56.6667 52.6667C57.0833 52.6667 57.475 52.4667 57.725 52.1333L60.6583 48.2083H61.9417C61.425 49.3583 60.7 51 60 52.725C58.0667 57.45 57.125 60.55 57.125 62.225V69.0667H54.8833V62.2333C54.8667 60.5583 53.925 57.55 51.9833 53.0417ZM19.4167 15.3833C19.4167 14.4083 20.4 13 21.925 11.8C23.4583 10.5833 25.3083 9.76666 26.525 9.76666H53.6667V2.69999H58.3333V9.76666H85.475C86.7 9.76666 88.5583 10.5833 90.0833 11.7917C91.6 12.9917 92.5833 14.4 92.5833 15.3833V21.4583H19.4167V15.3833ZM92.2167 24.125L79.3333 75.925H66.4333V67.625C66.4333 65.925 66.8667 63.425 70.2417 59.2167C71.5167 57.625 72.5 55.8583 73.1833 53.9583C73.8917 51.9917 74.25 49.925 74.25 47.8C74.25 42.9167 72.35 38.3333 68.9 34.8833C65.45 31.4333 60.8583 29.5333 55.975 29.5333C51.0917 29.5333 46.5083 31.4333 43.0583 34.8833C39.6083 38.3333 37.7083 42.925 37.7083 47.8C37.7083 49.9083 38.0667 51.975 38.775 53.9583C39.4583 55.875 40.45 57.6417 41.7167 59.2167C43.4917 61.425 45.525 64.375 45.525 67.6167V70.3917C45.525 70.4333 45.525 70.4667 45.5333 70.5083V75.925H32.6667L19.7833 24.125H92.2167Z" fill="#312783"/>
<path d="M93.8505 38.1667C94.1588 38.8333 94.8089 39.225 95.4922 39.225C95.7422 39.225 96.0005 39.175 96.2422 39.0667L106.276 34.4833C107.184 34.0667 107.584 32.9917 107.167 32.0917C106.751 31.1833 105.684 30.7833 104.776 31.2L94.7422 35.7833C93.8339 36.1917 93.4338 37.2667 93.8505 38.1667Z" fill="#312783"/>
<path d="M110.142 61.425L99.2253 59.8583C98.242 59.7166 97.3336 60.4 97.1836 61.3833C97.042 62.3666 97.7253 63.275 98.7086 63.425L109.625 64.9916C109.717 65 109.809 65.0083 109.884 65.0083C110.759 65.0083 111.534 64.3583 111.659 63.4666C111.809 62.4833 111.125 61.575 110.142 61.425Z" fill="#312783"/>
<path d="M98.3253 89.75L89.9919 82.525C89.2419 81.8666 88.1003 81.9583 87.4503 82.7083C86.7919 83.4583 86.8836 84.6 87.6336 85.25L95.9669 92.475C96.3086 92.775 96.7336 92.9166 97.1503 92.9166C97.6586 92.9166 98.1503 92.7 98.5086 92.2916C99.1586 91.5416 99.0753 90.4 98.3253 89.75Z" fill="#312783"/>
<path d="M21.9919 82.525L13.6585 89.75C12.9085 90.4 12.8252 91.5417 13.4752 92.2917C13.8252 92.7083 14.3335 92.9167 14.8335 92.9167C15.2585 92.9167 15.6752 92.775 16.0169 92.475L24.3502 85.25C25.1002 84.6 25.1835 83.4583 24.5335 82.7083C23.8835 81.9583 22.7419 81.875 21.9919 82.525Z" fill="#312783"/>
<path d="M14.7836 61.375C14.6503 60.3917 13.7253 59.7083 12.742 59.85L1.83363 61.4167C0.850296 61.55 0.166964 62.475 0.308631 63.4583C0.441964 64.3583 1.20863 65.0083 2.09196 65.0083C2.18363 65.0083 2.26696 65 2.34196 64.9833L13.2586 63.4167C14.242 63.275 14.9336 62.3583 14.7836 61.375Z" fill="#312783"/>
<path d="M5.71743 34.475L15.7508 39.0583C15.9924 39.1666 16.2508 39.2166 16.5008 39.2166C17.1758 39.2166 17.8341 38.8166 18.1424 38.1583C18.5591 37.2583 18.1508 36.1833 17.2508 35.7666L7.21743 31.1833C6.31743 30.7666 5.24243 31.175 4.82576 32.075C4.4091 32.9916 4.81743 34.0666 5.71743 34.475Z" fill="#312783"/>
</svg>
