<svg width="152" height="61" viewBox="0 0 152 61" fill="none" xmlns="http://www.w3.org/2000/svg">
<path d="M78.1132 2.08569V4.08622C76.7239 3.4035 75.4452 3.06214 74.277 3.06214C72.7772 3.06214 71.5222 3.54639 70.496 4.52284C69.4699 5.49929 68.9568 6.69008 68.9568 8.10315C68.9568 9.54798 69.4857 10.7467 70.5276 11.7152C71.5774 12.6758 72.8877 13.16 74.4664 13.16C75.611 13.16 76.8265 12.7949 78.1053 12.0725V14.0968C76.9371 14.7239 75.6741 15.0336 74.3086 15.0336C72.3115 15.0336 70.6065 14.3508 69.1936 12.9933C67.7807 11.6358 67.0703 9.99254 67.0703 8.07934C67.0703 6.19789 67.7649 4.57841 69.1621 3.23678C70.5592 1.89516 72.2405 1.22832 74.198 1.22832C75.461 1.22832 76.7634 1.51411 78.1132 2.08569Z" fill="white"/>
<path d="M92.0131 8.11903C92.0131 6.69008 91.5001 5.48341 90.4739 4.50696C89.4478 3.53051 88.1849 3.03832 86.693 3.03832C85.2722 3.03832 84.0487 3.53845 83.0384 4.53078C82.0201 5.5231 81.5149 6.72183 81.5149 8.11903C81.5149 9.5321 82.0359 10.7308 83.0778 11.7152C84.1198 12.6917 85.3985 13.1839 86.9061 13.1839C88.2954 13.1839 89.4952 12.6837 90.5055 11.6835C91.508 10.6832 92.0131 9.49241 92.0131 8.11903ZM79.6758 8.03964C79.6758 6.16613 80.3783 4.56253 81.7754 3.22885C83.1804 1.89516 84.8617 1.22832 86.8351 1.22832C88.7532 1.22832 90.4108 1.9031 91.8 3.24472C93.1893 4.58635 93.8839 6.18995 93.8839 8.03964C93.8839 10.0005 93.1972 11.6517 91.8237 13.0013C90.4503 14.3508 88.769 15.0256 86.7719 15.0256C84.8065 15.0256 83.1252 14.3429 81.7438 12.9854C80.3625 11.6279 79.6758 9.97666 79.6758 8.03964Z" fill="white"/>
<path d="M96.0781 1.11718L105.605 10.969V1.63319H107.366V15.1923L97.8384 5.38815V14.5969H96.0781V1.11718Z" fill="white"/>
<path d="M117.864 3.07801L116.435 4.22911C116.056 3.84012 115.717 3.53845 115.409 3.34793C115.101 3.1574 114.659 3.0542 114.083 3.0542C113.452 3.0542 112.939 3.19709 112.544 3.48288C112.149 3.76867 111.952 4.14179 111.952 4.59429C111.952 4.98328 112.125 5.33258 112.465 5.63424C112.812 5.93591 113.396 6.26139 114.225 6.61863C115.054 6.97587 115.701 7.30929 116.159 7.6189C116.617 7.9285 116.996 8.26986 117.296 8.64298C117.588 9.01609 117.817 9.40508 117.959 9.82583C118.101 10.2386 118.172 10.6753 118.172 11.1357C118.172 12.2153 117.785 13.1283 117.004 13.8904C116.222 14.6525 115.283 15.0256 114.178 15.0256C113.096 15.0256 112.149 14.7319 111.32 14.1365C110.492 13.5411 109.86 12.652 109.41 11.4691L111.17 10.969C111.81 12.4297 112.789 13.1521 114.115 13.1521C114.754 13.1521 115.291 12.9616 115.709 12.5726C116.135 12.1915 116.348 11.6993 116.348 11.1119C116.348 10.7626 116.238 10.4053 116.017 10.0481C115.796 9.69087 115.52 9.39714 115.188 9.17486C114.857 8.94464 114.328 8.68267 113.609 8.381C112.891 8.07934 112.331 7.80942 111.944 7.56333C111.557 7.31723 111.218 7.0235 110.934 6.68214C110.649 6.34078 110.444 5.99942 110.31 5.65806C110.176 5.3167 110.113 4.95946 110.113 4.57047C110.113 3.64165 110.484 2.84779 111.226 2.19683C111.976 1.5538 112.875 1.22832 113.933 1.22832C114.636 1.22832 115.346 1.37915 116.064 1.68876C116.79 1.99042 117.39 2.4588 117.864 3.07801Z" fill="white"/>
<path d="M120.217 1.63319H127.352V3.4035H121.953V6.64245H127.352V8.38894H121.953V12.8425H127.352V14.5969H120.217V1.63319Z" fill="white"/>
<path d="M132.436 1.65701H134.196V11.1595C134.196 13.7475 133.13 15.0336 130.991 15.0336C130.249 15.0336 129.515 14.843 128.797 14.454L129.665 13.0092C130.233 13.2077 130.691 13.3029 131.054 13.3029C131.978 13.3029 132.444 12.6758 132.444 11.4294V1.65701H132.436Z" fill="white"/>
<path d="M149.201 8.11903C149.201 6.69008 148.688 5.48341 147.661 4.50696C146.635 3.53051 145.372 3.03832 143.881 3.03832C142.46 3.03832 141.236 3.53845 140.226 4.53078C139.208 5.5231 138.702 6.72183 138.702 8.11903C138.702 9.5321 139.223 10.7308 140.265 11.7152C141.307 12.6917 142.586 13.1839 144.094 13.1839C145.483 13.1839 146.683 12.6837 147.685 11.6835C148.695 10.6832 149.201 9.49241 149.201 8.11903ZM136.863 8.03964C136.863 6.16613 137.566 4.56253 138.971 3.22885C140.368 1.89516 142.057 1.22832 144.023 1.22832C145.949 1.22832 147.598 1.9031 148.988 3.24472C150.377 4.58635 151.071 6.18995 151.071 8.03964C151.071 10.0005 150.385 11.6517 149.011 13.0013C147.638 14.3508 145.956 15.0256 143.959 15.0256C141.994 15.0256 140.313 14.3429 138.931 12.9854C137.55 11.6279 136.863 9.97666 136.863 8.03964Z" fill="white"/>
<path d="M82.6132 22.9483V25.7189C80.6951 24.7742 78.927 24.2979 77.3168 24.2979C75.2487 24.2979 73.5043 24.9727 72.0913 26.3143C70.6705 27.6559 69.968 29.3072 69.968 31.268C69.968 33.2606 70.6942 34.9277 72.1387 36.2614C73.5911 37.5951 75.3987 38.2619 77.5851 38.2619C79.1717 38.2619 80.8451 37.7618 82.6211 36.7536V39.5559C81.0109 40.4212 79.2585 40.8499 77.3799 40.8499C74.6172 40.8499 72.265 39.9131 70.3074 38.0317C68.3499 36.1502 67.3711 33.8877 67.3711 31.2363C67.3711 28.6324 68.3341 26.4016 70.2601 24.5519C72.1861 22.6943 74.5067 21.7655 77.2142 21.7655C78.9428 21.7655 80.7504 22.1624 82.6132 22.9483Z" fill="white"/>
<path d="M85.4606 22.3291H87.8681V40.2466H85.4606V22.3291ZM85.1133 20.5429L86.9682 16.6372H90.2677L87.1813 20.5429H85.1133Z" fill="white"/>
<path d="M90.3008 22.353H92.8661L98.4626 35.0468L104.098 22.353H106.687L98.431 40.8499L90.3008 22.353Z" fill="white"/>
<path d="M111.447 22.3292H109.039V40.2466H111.447V22.3292Z" fill="white"/>
<path d="M129.76 22.9484V25.7189C127.842 24.7742 126.074 24.2979 124.463 24.2979C122.395 24.2979 120.651 24.9727 119.238 26.3143C117.825 27.6559 117.114 29.3072 117.114 31.268C117.114 33.2606 117.841 34.9277 119.285 36.2614C120.738 37.5951 122.553 38.2619 124.732 38.2619C126.318 38.2619 127.992 37.7618 129.768 36.7536V39.5559C128.157 40.4212 126.405 40.8499 124.526 40.8499C121.764 40.8499 119.411 39.9132 117.454 38.0317C115.496 36.1503 114.518 33.8878 114.518 31.2363C114.518 28.6324 115.481 26.4016 117.407 24.552C119.333 22.6943 121.653 21.7655 124.361 21.7655C126.089 21.7655 127.889 22.1624 129.76 22.9484Z" fill="white"/>
<path d="M148.966 31.2918C148.966 29.3151 148.255 27.648 146.843 26.2984C145.422 24.9489 143.685 24.2662 141.617 24.2662C139.652 24.2662 137.962 24.9568 136.565 26.3302C135.16 27.7036 134.458 29.3627 134.458 31.2918C134.458 33.2447 135.176 34.9039 136.621 36.2535C138.065 37.611 139.825 38.2857 141.909 38.2857C143.827 38.2857 145.485 37.5951 146.882 36.2138C148.271 34.8324 148.966 33.1971 148.966 31.2918ZM131.908 31.1807C131.908 28.5927 132.879 26.3778 134.813 24.5361C136.755 22.6943 139.083 21.7655 141.807 21.7655C144.467 21.7655 146.748 22.6943 148.674 24.552C150.592 26.4096 151.555 28.6165 151.555 31.1807C151.555 33.8878 150.608 36.1741 148.705 38.0476C146.811 39.9132 144.482 40.8499 141.72 40.8499C138.996 40.8499 136.684 39.9052 134.774 38.0238C132.863 36.1423 131.908 33.856 131.908 31.1807Z" fill="white"/>
<path d="M68.0508 44.7954V49.9396H68.1061C68.8165 49.9396 69.3453 49.9079 69.7084 49.8444C70.0636 49.7808 70.4109 49.6379 70.7267 49.4236C71.0503 49.2093 71.3029 48.9155 71.4923 48.5583C71.6818 48.2011 71.7765 47.8041 71.7765 47.3754C71.7765 46.8356 71.6265 46.3434 71.3187 45.9068C71.0187 45.4702 70.6556 45.1765 70.2294 45.0256C69.8031 44.8748 69.2427 44.8033 68.5244 44.8033H68.0508V44.7954ZM67.0957 43.8586H68.7928C70.1347 43.8586 71.1292 44.2159 71.7923 44.9304C72.4474 45.6448 72.7711 46.4625 72.7711 47.3754C72.7711 48.2963 72.4316 49.114 71.7528 49.8285C71.074 50.535 70.0952 50.8922 68.8007 50.8922H67.0957V43.8586Z" fill="white"/>
<path d="M73.7871 43.8586H77.6628V44.8192H74.7343V46.5736H77.6628V47.5263H74.7343V49.9396H77.6628V50.8922H73.7871V43.8586Z" fill="white"/>
<path d="M82.8163 43.8586H81.8691V50.8843H82.8163V43.8586Z" fill="white"/>
<path d="M84.293 43.5808L89.4631 48.9235V43.8587H90.4182V51.2098L85.2481 45.8989V50.8923H84.293V43.5808Z" fill="white"/>
<path d="M96.1094 44.6446L95.3359 45.2717C95.1306 45.0574 94.9491 44.8986 94.7833 44.7954C94.6176 44.6922 94.3808 44.6366 94.065 44.6366C93.7256 44.6366 93.4415 44.716 93.2283 44.8668C93.0152 45.0256 92.9047 45.2241 92.9047 45.4702C92.9047 45.6845 92.9994 45.875 93.181 46.0338C93.3704 46.2005 93.6861 46.3752 94.1361 46.5736C94.586 46.7642 94.9333 46.9468 95.1859 47.1135C95.4385 47.2802 95.6437 47.4628 95.8016 47.6692C95.9594 47.8676 96.0778 48.082 96.1568 48.3043C96.2357 48.5265 96.2752 48.7647 96.2752 49.0187C96.2752 49.6062 96.0621 50.0984 95.6437 50.5112C95.2175 50.924 94.7123 51.1304 94.1124 51.1304C93.5283 51.1304 93.0073 50.9716 92.5653 50.6461C92.1154 50.3207 91.7759 49.8443 91.5312 49.2013L92.4863 48.9314C92.8337 49.7253 93.3625 50.1222 94.0808 50.1222C94.4281 50.1222 94.7202 50.019 94.9491 49.8047C95.178 49.5983 95.2964 49.3283 95.2964 49.0108C95.2964 48.8203 95.2333 48.6297 95.1149 48.4392C94.9965 48.2487 94.8465 48.0899 94.6649 47.9629C94.4834 47.8359 94.1992 47.693 93.8124 47.5342C93.4178 47.3754 93.1178 47.2246 92.9047 47.0897C92.6916 46.9547 92.51 46.7959 92.3601 46.6133C92.2101 46.4307 92.0917 46.2402 92.0206 46.0576C91.9496 45.875 91.9101 45.6766 91.9101 45.4702C91.9101 44.97 92.1154 44.5414 92.5179 44.1841C92.9205 43.8269 93.4099 43.6522 93.9861 43.6522C94.365 43.6522 94.7518 43.7396 95.1464 43.8983C95.5253 44.0571 95.8568 44.3032 96.1094 44.6446Z" fill="white"/>
<path d="M97.0332 43.8586H101.311V44.8192H99.638V50.8922H98.6987V44.8192H97.0332V43.8586Z" fill="white"/>
<path d="M103.314 43.8586H102.367V50.8843H103.314V43.8586Z" fill="white"/>
<path d="M104.422 43.8586H108.692V44.8192H107.027V50.8922H106.079V44.8192H104.422V43.8586Z" fill="white"/>
<path d="M109.734 43.8666H110.69V48.1852C110.69 48.8282 110.84 49.3204 111.147 49.6697C111.455 50.019 111.881 50.1936 112.442 50.1936C112.994 50.1936 113.429 50.0349 113.736 49.7094C114.044 49.3839 114.202 48.9314 114.202 48.3519V43.8666H115.157V48.2884C115.157 49.1537 114.913 49.8364 114.423 50.3524C113.934 50.8684 113.286 51.1225 112.473 51.1225C111.645 51.1225 110.982 50.8605 110.476 50.3365C109.979 49.8126 109.727 49.0426 109.727 48.0264V43.8666H109.734Z" fill="white"/>
<path d="M122.204 44.1047V45.1923C121.454 44.8192 120.759 44.6366 120.128 44.6366C119.315 44.6366 118.628 44.8986 118.076 45.4305C117.523 45.9544 117.239 46.6054 117.239 47.3754C117.239 48.1614 117.523 48.8123 118.092 49.3363C118.66 49.8602 119.37 50.1222 120.231 50.1222C120.854 50.1222 121.509 49.9237 122.204 49.5347V50.6303C121.572 50.9716 120.886 51.1383 120.144 51.1383C119.062 51.1383 118.139 50.7732 117.365 50.0349C116.6 49.2966 116.213 48.4075 116.213 47.3675C116.213 46.3434 116.592 45.4702 117.342 44.7398C118.099 44.0095 119.007 43.6522 120.073 43.6522C120.759 43.6364 121.47 43.7951 122.204 44.1047Z" fill="white"/>
<path d="M124.271 43.8586H123.324V50.8843H124.271V43.8586Z" fill="white"/>
<path d="M132.207 47.3754C132.207 46.5975 131.931 45.9465 131.371 45.4146C130.818 44.8827 130.131 44.6207 129.318 44.6207C128.545 44.6207 127.89 44.8907 127.337 45.4305C126.785 45.9703 126.508 46.6213 126.508 47.3754C126.508 48.1455 126.792 48.7965 127.353 49.3204C127.921 49.8523 128.608 50.1143 129.429 50.1143C130.179 50.1143 130.834 49.8444 131.378 49.3045C131.931 48.7647 132.207 48.1217 132.207 47.3754ZM125.514 47.3358C125.514 46.3196 125.893 45.4543 126.658 44.7319C127.416 44.0095 128.332 43.6443 129.405 43.6443C130.447 43.6443 131.347 44.0095 132.097 44.7398C132.847 45.4702 133.226 46.3355 133.226 47.3358C133.226 48.3995 132.855 49.2966 132.105 50.0269C131.363 50.7573 130.447 51.1304 129.366 51.1304C128.3 51.1304 127.392 50.7573 126.642 50.019C125.885 49.2807 125.514 48.3837 125.514 47.3358Z" fill="white"/>
<path d="M134.41 43.5808L139.58 48.9235V43.8587H140.535V51.2098L135.365 45.8989V50.8923H134.41V43.5808Z" fill="white"/>
<path d="M141.885 43.8586H145.753V44.8192H142.824V46.5736H145.753V47.5263H142.824V49.9396H145.753V50.8922H141.885V43.8586Z" fill="white"/>
<path d="M151.15 44.6446L150.377 45.2717C150.172 45.0574 149.99 44.8986 149.824 44.7954C149.659 44.6922 149.422 44.6366 149.106 44.6366C148.767 44.6366 148.482 44.716 148.269 44.8668C148.056 45.0256 147.946 45.2241 147.946 45.4702C147.946 45.6845 148.04 45.875 148.222 46.0338C148.411 46.2005 148.727 46.3752 149.177 46.5736C149.627 46.7642 149.974 46.9468 150.227 47.1135C150.472 47.2802 150.685 47.4628 150.843 47.6692C151 47.8676 151.119 48.082 151.198 48.3043C151.277 48.5265 151.316 48.7647 151.316 49.0187C151.316 49.6062 151.103 50.0984 150.685 50.5112C150.258 50.924 149.753 51.1304 149.153 51.1304C148.569 51.1304 148.048 50.9716 147.606 50.6461C147.156 50.3207 146.817 49.8443 146.572 49.2013L147.527 48.9314C147.875 49.7253 148.404 50.1222 149.122 50.1222C149.469 50.1222 149.761 50.019 149.99 49.8047C150.219 49.5983 150.337 49.3283 150.337 49.0108C150.337 48.8203 150.274 48.6297 150.156 48.4392C150.037 48.2487 149.887 48.0899 149.706 47.9629C149.524 47.8359 149.24 47.693 148.853 47.5342C148.459 47.3754 148.159 47.2246 147.954 47.0897C147.74 46.9547 147.559 46.7959 147.409 46.6133C147.259 46.4307 147.141 46.2402 147.07 46.0576C146.999 45.875 146.959 45.6766 146.959 45.4702C146.959 44.97 147.156 44.5414 147.567 44.1841C147.969 43.8269 148.459 43.6522 149.035 43.6522C149.414 43.6522 149.801 43.7396 150.195 43.8983C150.566 44.0571 150.89 44.3032 151.15 44.6446Z" fill="white"/>
<path d="M68.0508 54.036V59.1802H68.1061C68.8165 59.1802 69.3453 59.1484 69.7084 59.0849C70.0636 59.0214 70.4109 58.8785 70.7267 58.6642C71.0503 58.4498 71.3029 58.1561 71.4923 57.7988C71.6818 57.4416 71.7765 57.0447 71.7765 56.616C71.7765 56.0762 71.6265 55.584 71.3187 55.1474C71.0187 54.7107 70.6556 54.417 70.2294 54.2662C69.8031 54.1153 69.2427 54.036 68.5244 54.036H68.0508ZM67.0957 53.0992H68.7928C70.1347 53.0992 71.1292 53.4564 71.7923 54.1709C72.4474 54.8854 72.7711 55.6951 72.7711 56.616C72.7711 57.5369 72.4316 58.3546 71.7528 59.0611C71.074 59.7676 70.0952 60.1249 68.8007 60.1249H67.0957V53.0992Z" fill="white"/>
<path d="M73.7871 53.0992H77.6628V54.0598H74.7343V55.8142H77.6628V56.7668H74.7343V59.1802H77.6628V60.1328H73.7871V53.0992Z" fill="white"/>
<path d="M87.54 53.3453V54.4329C86.7901 54.0598 86.0955 53.8772 85.4561 53.8772C84.6431 53.8772 83.9643 54.1391 83.4039 54.671C82.8513 55.195 82.5672 55.8459 82.5672 56.616C82.5672 57.394 82.8513 58.0529 83.4196 58.5768C83.988 59.1008 84.6984 59.3627 85.5588 59.3627C86.1823 59.3627 86.8375 59.1643 87.5321 58.7753V59.8708C86.9006 60.2122 86.2139 60.3789 85.4719 60.3789C84.3905 60.3789 83.467 60.0137 82.6934 59.2754C81.9278 58.5371 81.541 57.648 81.541 56.608C81.541 55.584 81.9199 54.7107 82.6777 53.9804C83.4354 53.25 84.3432 52.8928 85.4088 52.8928C86.1034 52.8769 86.8059 53.0357 87.54 53.3453Z" fill="white"/>
<path d="M95.0764 56.616C95.0764 55.838 94.8001 55.187 94.2397 54.6551C93.6872 54.1233 93.0005 53.8613 92.1874 53.8613C91.4139 53.8613 90.7508 54.1312 90.2062 54.671C89.6537 55.2108 89.3774 55.8618 89.3774 56.616C89.3774 57.386 89.6615 58.037 90.222 58.5609C90.7903 59.0928 91.477 59.3548 92.2979 59.3548C93.0478 59.3548 93.703 59.0849 94.2476 58.5451C94.8001 58.0052 95.0764 57.3622 95.0764 56.616ZM88.3828 56.5763C88.3828 55.5601 88.7617 54.6948 89.5195 53.9645C90.2772 53.2421 91.1929 52.8769 92.2664 52.8769C93.3083 52.8769 94.2081 53.2421 94.958 53.9724C95.7079 54.7028 96.0868 55.5681 96.0868 56.5683C96.0868 57.6321 95.7158 58.5292 94.9659 59.2595C94.2239 59.9899 93.3083 60.3551 92.2269 60.3551C91.1613 60.3551 90.2536 59.9899 89.5037 59.2516C88.7617 58.5212 88.3828 57.6242 88.3828 56.5763Z" fill="white"/>
<path d="M99.7173 55.0203L98.5964 57.5289H100.846L99.7173 55.0203ZM99.7173 52.8293L103.017 60.1328H102.014L101.201 58.3307H98.2333L97.4282 60.1328H96.4336L99.7173 52.8293Z" fill="white"/>
<path d="M103.932 53.0992H104.887V55.8062H108.226V53.0992H109.173V60.1328H108.226V56.7509H104.887V60.1328H103.932V53.0992Z" fill="white"/>
<path d="M110.65 53.1071H111.606V57.4337C111.606 58.0767 111.756 58.5689 112.063 58.9182C112.371 59.2675 112.797 59.4421 113.358 59.4421C113.91 59.4421 114.345 59.2834 114.652 58.9579C114.96 58.6324 115.118 58.1799 115.118 57.6004V53.1151H116.073V57.5369C116.073 58.4022 115.829 59.0849 115.339 59.6009C114.85 60.1169 114.203 60.371 113.389 60.371C112.561 60.371 111.898 60.109 111.392 59.585C110.895 59.0611 110.643 58.291 110.643 57.2749V53.1071H110.65Z" fill="white"/>
<path d="M118.394 53.0992H117.455V60.1248H118.394V53.0992Z" fill="white"/>
<path d="M120.066 53.0992H121.014V59.1802H123.287V60.1328H120.066V53.0992Z" fill="white"/>
<path d="M126.864 55.0203L125.743 57.5289H127.992L126.864 55.0203ZM126.864 52.8293L130.163 60.1328H129.161L128.348 58.3307H125.38L124.575 60.1328H123.58L126.864 52.8293Z" fill="white"/>
<path d="M136.746 55.0203L135.626 57.5289H137.875L136.746 55.0203ZM136.754 52.8293L140.054 60.1328H139.051L138.238 58.3307H135.27L134.473 60.1328H133.479L136.754 52.8293Z" fill="white"/>
<path d="M140.668 59.4818C140.668 59.2754 140.739 59.1008 140.881 58.9579C141.023 58.8071 141.197 58.7356 141.402 58.7356C141.599 58.7356 141.773 58.8071 141.923 58.9579C142.073 59.1008 142.144 59.2754 142.144 59.4818C142.144 59.6882 142.073 59.8629 141.923 60.0058C141.781 60.1487 141.607 60.2201 141.402 60.2201C141.197 60.2201 141.023 60.1487 140.881 60.0058C140.739 59.8708 140.668 59.6962 140.668 59.4818Z" fill="white"/>
<path d="M149.044 53.3453V54.4329C148.286 54.0598 147.599 53.8772 146.96 53.8772C146.147 53.8772 145.468 54.1392 144.908 54.671C144.347 55.195 144.071 55.846 144.071 56.616C144.071 57.394 144.355 58.0529 144.924 58.5768C145.492 59.1008 146.202 59.3628 147.063 59.3628C147.686 59.3628 148.341 59.1643 149.036 58.7753V59.8708C148.405 60.2122 147.718 60.3789 146.976 60.3789C145.894 60.3789 144.971 60.0137 144.197 59.2754C143.432 58.5371 143.045 57.648 143.045 56.6081C143.045 55.584 143.424 54.7107 144.174 53.9804C144.931 53.25 145.839 52.8928 146.905 52.8928C147.599 52.8769 148.31 53.0357 149.044 53.3453Z" fill="white"/>
<path d="M149.92 59.4818C149.92 59.2754 149.991 59.1008 150.133 58.9579C150.275 58.8071 150.449 58.7356 150.654 58.7356C150.851 58.7356 151.033 58.8071 151.175 58.9579C151.325 59.1008 151.396 59.2754 151.396 59.4818C151.396 59.6882 151.325 59.8629 151.175 60.0058C151.033 60.1487 150.859 60.2201 150.654 60.2201C150.449 60.2201 150.275 60.1487 150.133 60.0058C149.991 59.8708 149.92 59.6962 149.92 59.4818Z" fill="white"/>
<path d="M22.117 47.0579C19.528 49.2252 16.347 49.1616 13.7974 46.2244C11.2478 43.2871 12.0766 40.1593 14.4289 38.0873C16.7811 36.0233 21.7539 36.3567 22.1565 36.4202C22.1565 36.4202 24.1772 36.182 24.3745 38.5557C24.5719 40.9214 24.7061 44.8907 22.117 47.0579ZM28.337 36.0233C27.9976 31.9904 24.5482 32.3874 24.5482 32.3874C23.8694 32.2683 15.3919 31.7047 11.382 35.2294C7.36428 38.7541 5.95136 44.0968 10.3085 49.0981C14.6578 54.0995 20.0884 54.2106 24.4929 50.5192C28.9053 46.8198 28.6764 40.064 28.337 36.0233Z" fill="white"/>
<path d="M11.3033 55.2188C11.3033 58.3625 8.76956 60.9028 5.65167 60.9028C2.53378 60.9028 0 58.3546 0 55.2188C0 52.0831 2.53378 49.5348 5.65167 49.5348C8.77745 49.5348 11.3033 52.0831 11.3033 55.2188Z" fill="white"/>
<path d="M45.7886 46.2244C43.239 49.1616 40.0501 49.2252 37.469 47.0579C34.8799 44.8907 35.0141 40.9214 35.2115 38.5557C35.4088 36.19 37.4295 36.4202 37.4295 36.4202C37.8242 36.3567 42.797 36.0233 45.1571 38.0873C47.5094 40.1513 48.3382 43.2871 45.7886 46.2244ZM48.204 35.2294C44.1942 31.7046 35.7166 32.2762 35.0378 32.3874C35.0378 32.3874 31.5884 31.9904 31.249 36.0233C30.9096 40.0561 30.6807 46.8198 35.0931 50.5191C39.5055 54.2185 44.9282 54.0995 49.2775 49.0981C53.6268 44.0968 52.2138 38.7541 48.204 35.2294Z" fill="white"/>
<path d="M48.2832 55.2188C48.2832 58.3625 50.817 60.9028 53.9349 60.9028C57.0528 60.9028 59.5865 58.3546 59.5865 55.2188C59.5865 52.0831 57.0528 49.5348 53.9349 49.5348C50.8091 49.5348 48.2832 52.0831 48.2832 55.2188Z" fill="white"/>
<path d="M45.1571 23.7184C42.8049 25.7824 37.8321 25.449 37.4295 25.3855C37.4295 25.3855 35.4088 25.6237 35.2115 23.25C35.0141 20.8843 34.8799 16.915 37.469 14.7478C40.0501 12.5805 43.239 12.652 45.7886 15.5813C48.3382 18.5186 47.5094 21.6544 45.1571 23.7184ZM49.2775 12.7076C44.9282 7.70623 39.4976 7.59509 35.0931 11.2865C30.6807 14.978 30.9096 21.7496 31.249 25.7824C31.5884 29.8152 35.0378 29.4183 35.0378 29.4183C35.7166 29.5295 44.1942 30.101 48.204 26.5763C52.2138 23.0595 53.6268 17.7089 49.2775 12.7076Z" fill="white"/>
<path d="M48.2832 6.58689C48.2832 3.4432 50.817 0.902847 53.9349 0.902847C57.0528 0.902847 59.5865 3.45114 59.5865 6.58689C59.5865 9.72264 57.0528 12.2709 53.9349 12.2709C50.8091 12.2709 48.2832 9.73058 48.2832 6.58689Z" fill="white"/>
<path d="M24.3746 23.258C24.1773 25.6237 22.1566 25.3934 22.1566 25.3934C21.7619 25.4649 16.7891 25.7983 14.4289 23.7263C12.0767 21.6623 11.2479 18.5266 13.7975 15.5893C16.347 12.6599 19.536 12.5885 22.1171 14.7557C24.7061 16.923 24.5719 20.8923 24.3746 23.258ZM24.493 11.2865C20.0806 7.59509 14.6578 7.70623 10.3086 12.7076C5.95932 17.7089 7.37224 23.0516 11.3821 26.5763C15.3919 30.101 23.8694 29.5295 24.5483 29.4183C24.5483 29.4183 27.9977 29.8152 28.3371 25.7824C28.6765 21.7496 28.8975 14.9859 24.493 11.2865Z" fill="white"/>
<path d="M11.3033 6.58689C11.3033 3.4432 8.77745 0.902847 5.65167 0.902847C2.53378 0.902847 0 3.45114 0 6.58689C0 9.72264 2.53378 12.2709 5.65167 12.2709C8.77745 12.2709 11.3033 9.73058 11.3033 6.58689Z" fill="white"/>
</svg>
